<?xml version="1.0" encoding="UTF-8"?>
<svg xmlns="http://www.w3.org/2000/svg" viewBox="0 0 900 480" font-family="'NVIDIA', 'Inter', 'SF Pro Display', Arial, sans-serif">
  <defs>
    <!-- Load NVIDIA font from CDN -->
    <style type="text/css">
      @font-face {
        font-family: 'NVIDIA';
        font-style: normal;
        font-weight: 400;
        src: url('https://images.nvidia.com/etc/designs/nvidiaGDC/clientlibs_base/fonts/nvidia-sans/GLOBAL/NVIDIASans_W_Rg.woff2') format('woff2');
      }
      @font-face {
        font-family: 'NVIDIA';
        font-style: normal;
        font-weight: 700;
        src: url('https://images.nvidia.com/etc/designs/nvidiaGDC/clientlibs_base/fonts/nvidia-sans/GLOBAL/NVIDIASans_W_Bd.woff2') format('woff2');
      }
      @font-face {
        font-family: 'RobotoMono';
        font-style: normal;
        font-weight: 400;
        src: url('https://images.nvidia.com/etc/designs/nvidiaGDC/clientlibs_base/fonts/Roboto_Mono/static/RobotoMono-Regular.ttf') format('truetype');
      }
      @font-face {
        font-family: 'RobotoMono';
        font-style: normal;
        font-weight: 500;
        src: url('https://images.nvidia.com/etc/designs/nvidiaGDC/clientlibs_base/fonts/Roboto_Mono/static/RobotoMono-Medium.ttf') format('truetype');
      }
    </style>
    
    <!-- Filters -->
    <filter id="glow">
      <feGaussianBlur stdDeviation="2" result="coloredBlur"/>
      <feMerge>
        <feMergeNode in="coloredBlur"/>
        <feMergeNode in="SourceGraphic"/>
      </feMerge>
    </filter>

    <!-- Arrow marker -->
    <marker id="arrow-white" markerWidth="6" markerHeight="6" refX="5" refY="3" orient="auto">
      <path d="M 0 0.5 L 5 3 L 0 5.5" fill="none" stroke="#ffffff" stroke-width="1.2" stroke-linecap="round" stroke-linejoin="round"/>
    </marker>

    <!-- Grid pattern -->
    <pattern id="grid" width="40" height="40" patternUnits="userSpaceOnUse">
      <path d="M 40 0 L 0 0 0 40" fill="none" stroke="#1c2128" stroke-width="0.5"/>
    </pattern>
  </defs>
  
  <!-- Background -->
  <rect width="900" height="480" fill="#0d1117"/>
  <rect width="900" height="480" fill="url(#grid)" opacity="0.5"/>
  
  <!-- Main Title -->
  <text x="450" y="38" text-anchor="middle" font-size="24" font-weight="500" fill="#ffffff" letter-spacing="-0.5">Partitioning: Dividing a Vector into Sub-Vectors</text>
  <line x1="250" y1="50" x2="650" y2="50" stroke="#76B900" stroke-width="2" opacity="0.6"/>

  <!-- ==================== TOP: Original Vector ==================== -->
  <text x="50" y="90" font-size="14" font-weight="600" fill="#8b949e">Original vector (32 elements)</text>
  
  <g transform="translate(50, 105)">
    <!-- Container -->
    <rect width="800" height="60" rx="8" fill="#161b22"/>
    <rect width="800" height="60" rx="8" fill="none" stroke="#6e7681" stroke-width="1.5"/>
    
    <!-- 32 cells -->
    <g transform="translate(5, 5)">
      <!-- Generate cells 0-31 -->
      <g font-family="'RobotoMono', monospace" font-size="11" fill="#c9d1d9">
        <!-- Row of numbers -->
        <rect x="0" y="0" width="24" height="50" rx="3" fill="#21262d"/>
        <text x="12" y="30" text-anchor="middle">0</text>
        
        <rect x="25" y="0" width="24" height="50" rx="3" fill="#21262d"/>
        <text x="37" y="30" text-anchor="middle">1</text>
        
        <rect x="50" y="0" width="24" height="50" rx="3" fill="#21262d"/>
        <text x="62" y="30" text-anchor="middle">2</text>
        
        <rect x="75" y="0" width="24" height="50" rx="3" fill="#21262d"/>
        <text x="87" y="30" text-anchor="middle">3</text>
        
        <rect x="100" y="0" width="24" height="50" rx="3" fill="#21262d"/>
        <text x="112" y="30" text-anchor="middle">4</text>
        
        <rect x="125" y="0" width="24" height="50" rx="3" fill="#21262d"/>
        <text x="137" y="30" text-anchor="middle">5</text>
        
        <rect x="150" y="0" width="24" height="50" rx="3" fill="#21262d"/>
        <text x="162" y="30" text-anchor="middle">6</text>
        
        <rect x="175" y="0" width="24" height="50" rx="3" fill="#21262d"/>
        <text x="187" y="30" text-anchor="middle">7</text>
        
        <rect x="200" y="0" width="24" height="50" rx="3" fill="#21262d"/>
        <text x="212" y="30" text-anchor="middle">8</text>
        
        <rect x="225" y="0" width="24" height="50" rx="3" fill="#21262d"/>
        <text x="237" y="30" text-anchor="middle">9</text>
        
        <rect x="250" y="0" width="24" height="50" rx="3" fill="#21262d"/>
        <text x="262" y="30" text-anchor="middle">10</text>
        
        <rect x="275" y="0" width="24" height="50" rx="3" fill="#21262d"/>
        <text x="287" y="30" text-anchor="middle">11</text>
        
        <rect x="300" y="0" width="24" height="50" rx="3" fill="#21262d"/>
        <text x="312" y="30" text-anchor="middle">12</text>
        
        <rect x="325" y="0" width="24" height="50" rx="3" fill="#21262d"/>
        <text x="337" y="30" text-anchor="middle">13</text>
        
        <rect x="350" y="0" width="24" height="50" rx="3" fill="#21262d"/>
        <text x="362" y="30" text-anchor="middle">14</text>
        
        <rect x="375" y="0" width="24" height="50" rx="3" fill="#21262d"/>
        <text x="387" y="30" text-anchor="middle">15</text>
        
        <rect x="400" y="0" width="24" height="50" rx="3" fill="#21262d"/>
        <text x="412" y="30" text-anchor="middle">16</text>
        
        <rect x="425" y="0" width="24" height="50" rx="3" fill="#21262d"/>
        <text x="437" y="30" text-anchor="middle">17</text>
        
        <rect x="450" y="0" width="24" height="50" rx="3" fill="#21262d"/>
        <text x="462" y="30" text-anchor="middle">18</text>
        
        <rect x="475" y="0" width="24" height="50" rx="3" fill="#21262d"/>
        <text x="487" y="30" text-anchor="middle">19</text>
        
        <rect x="500" y="0" width="24" height="50" rx="3" fill="#21262d"/>
        <text x="512" y="30" text-anchor="middle">20</text>
        
        <rect x="525" y="0" width="24" height="50" rx="3" fill="#21262d"/>
        <text x="537" y="30" text-anchor="middle">21</text>
        
        <rect x="550" y="0" width="24" height="50" rx="3" fill="#21262d"/>
        <text x="562" y="30" text-anchor="middle">22</text>
        
        <rect x="575" y="0" width="24" height="50" rx="3" fill="#21262d"/>
        <text x="587" y="30" text-anchor="middle">23</text>
        
        <rect x="600" y="0" width="24" height="50" rx="3" fill="#21262d"/>
        <text x="612" y="30" text-anchor="middle">24</text>
        
        <rect x="625" y="0" width="24" height="50" rx="3" fill="#21262d"/>
        <text x="637" y="30" text-anchor="middle">25</text>
        
        <rect x="650" y="0" width="24" height="50" rx="3" fill="#21262d"/>
        <text x="662" y="30" text-anchor="middle">26</text>
        
        <rect x="675" y="0" width="24" height="50" rx="3" fill="#21262d"/>
        <text x="687" y="30" text-anchor="middle">27</text>
        
        <rect x="700" y="0" width="24" height="50" rx="3" fill="#21262d"/>
        <text x="712" y="30" text-anchor="middle">28</text>
        
        <rect x="725" y="0" width="24" height="50" rx="3" fill="#21262d"/>
        <text x="737" y="30" text-anchor="middle">29</text>
        
        <rect x="750" y="0" width="24" height="50" rx="3" fill="#21262d"/>
        <text x="762" y="30" text-anchor="middle">30</text>
        
        <rect x="765" y="0" width="24" height="50" rx="3" fill="#21262d"/>
        <text x="777" y="30" text-anchor="middle">31</text>
      </g>
    </g>
  </g>

  <!-- Arrow down - MORE VERTICAL SPACE -->
  <g transform="translate(450, 185)">
    <text x="0" y="0" text-anchor="middle" font-size="14" font-weight="700" fill="#ffffff">partition( <tspan fill="#76B900">[ 8 ]</tspan> )</text>
    <path d="M 0 18 L 0 55" stroke="#ffffff" stroke-width="1.5" marker-end="url(#arrow-white)"/>
  </g>

  <!-- ==================== BOTTOM: Partitioned into 4 Sub-Vectors ==================== -->
  <text x="50" y="285" font-size="14" font-weight="600" fill="#8b949e">Partitioned into 4 sub-vectors (8 elements each)</text>
  
  <g transform="translate(50, 300)">
    <!-- Tile 0 - Pink -->
    <g transform="translate(0, 0)">
      <rect width="195" height="80" rx="10" fill="#161b22"/>
      <rect width="195" height="80" rx="10" fill="none" stroke="#f97583" stroke-width="2"/>
      <text x="97" y="22" text-anchor="middle" font-size="13" font-weight="600" fill="#f97583">SubVec 0</text>
      <text x="97" y="40" text-anchor="middle" font-size="11" fill="#8b949e">elements 0–7</text>
      
      <g transform="translate(10, 50)" font-family="'RobotoMono', monospace" font-size="10" fill="#c9d1d9">
        <rect x="0" y="0" width="20" height="22" rx="3" fill="#f97583" opacity="0.3"/>
        <text x="10" y="15" text-anchor="middle">0</text>
        <rect x="22" y="0" width="20" height="22" rx="3" fill="#f97583" opacity="0.3"/>
        <text x="32" y="15" text-anchor="middle">1</text>
        <rect x="44" y="0" width="20" height="22" rx="3" fill="#f97583" opacity="0.3"/>
        <text x="54" y="15" text-anchor="middle">2</text>
        <rect x="66" y="0" width="20" height="22" rx="3" fill="#f97583" opacity="0.3"/>
        <text x="76" y="15" text-anchor="middle">3</text>
        <rect x="88" y="0" width="20" height="22" rx="3" fill="#f97583" opacity="0.3"/>
        <text x="98" y="15" text-anchor="middle">4</text>
        <rect x="110" y="0" width="20" height="22" rx="3" fill="#f97583" opacity="0.3"/>
        <text x="120" y="15" text-anchor="middle">5</text>
        <rect x="132" y="0" width="20" height="22" rx="3" fill="#f97583" opacity="0.3"/>
        <text x="142" y="15" text-anchor="middle">6</text>
        <rect x="154" y="0" width="20" height="22" rx="3" fill="#f97583" opacity="0.3"/>
        <text x="164" y="15" text-anchor="middle">7</text>
      </g>
    </g>
    
    <!-- Tile 1 - Green -->
    <g transform="translate(205, 0)">
      <rect width="195" height="80" rx="10" fill="#161b22"/>
      <rect width="195" height="80" rx="10" fill="none" stroke="#56d364" stroke-width="2"/>
      <text x="97" y="22" text-anchor="middle" font-size="13" font-weight="600" fill="#56d364">SubVec 1</text>
      <text x="97" y="40" text-anchor="middle" font-size="11" fill="#8b949e">elements 8–15</text>
      
      <g transform="translate(10, 50)" font-family="'RobotoMono', monospace" font-size="10" fill="#c9d1d9">
        <rect x="0" y="0" width="20" height="22" rx="3" fill="#56d364" opacity="0.3"/>
        <text x="10" y="15" text-anchor="middle">8</text>
        <rect x="22" y="0" width="20" height="22" rx="3" fill="#56d364" opacity="0.3"/>
        <text x="32" y="15" text-anchor="middle">9</text>
        <rect x="44" y="0" width="20" height="22" rx="3" fill="#56d364" opacity="0.3"/>
        <text x="54" y="15" text-anchor="middle">10</text>
        <rect x="66" y="0" width="20" height="22" rx="3" fill="#56d364" opacity="0.3"/>
        <text x="76" y="15" text-anchor="middle">11</text>
        <rect x="88" y="0" width="20" height="22" rx="3" fill="#56d364" opacity="0.3"/>
        <text x="98" y="15" text-anchor="middle">12</text>
        <rect x="110" y="0" width="20" height="22" rx="3" fill="#56d364" opacity="0.3"/>
        <text x="120" y="15" text-anchor="middle">13</text>
        <rect x="132" y="0" width="20" height="22" rx="3" fill="#56d364" opacity="0.3"/>
        <text x="142" y="15" text-anchor="middle">14</text>
        <rect x="154" y="0" width="20" height="22" rx="3" fill="#56d364" opacity="0.3"/>
        <text x="164" y="15" text-anchor="middle">15</text>
      </g>
    </g>
    
    <!-- Tile 2 - Blue -->
    <g transform="translate(410, 0)">
      <rect width="195" height="80" rx="10" fill="#161b22"/>
      <rect width="195" height="80" rx="10" fill="none" stroke="#79c0ff" stroke-width="2"/>
      <text x="97" y="22" text-anchor="middle" font-size="13" font-weight="600" fill="#79c0ff">SubVec 2</text>
      <text x="97" y="40" text-anchor="middle" font-size="11" fill="#8b949e">elements 16–23</text>
      
      <g transform="translate(10, 50)" font-family="'RobotoMono', monospace" font-size="10" fill="#c9d1d9">
        <rect x="0" y="0" width="20" height="22" rx="3" fill="#79c0ff" opacity="0.3"/>
        <text x="10" y="15" text-anchor="middle">16</text>
        <rect x="22" y="0" width="20" height="22" rx="3" fill="#79c0ff" opacity="0.3"/>
        <text x="32" y="15" text-anchor="middle">17</text>
        <rect x="44" y="0" width="20" height="22" rx="3" fill="#79c0ff" opacity="0.3"/>
        <text x="54" y="15" text-anchor="middle">18</text>
        <rect x="66" y="0" width="20" height="22" rx="3" fill="#79c0ff" opacity="0.3"/>
        <text x="76" y="15" text-anchor="middle">19</text>
        <rect x="88" y="0" width="20" height="22" rx="3" fill="#79c0ff" opacity="0.3"/>
        <text x="98" y="15" text-anchor="middle">20</text>
        <rect x="110" y="0" width="20" height="22" rx="3" fill="#79c0ff" opacity="0.3"/>
        <text x="120" y="15" text-anchor="middle">21</text>
        <rect x="132" y="0" width="20" height="22" rx="3" fill="#79c0ff" opacity="0.3"/>
        <text x="142" y="15" text-anchor="middle">22</text>
        <rect x="154" y="0" width="20" height="22" rx="3" fill="#79c0ff" opacity="0.3"/>
        <text x="164" y="15" text-anchor="middle">23</text>
      </g>
    </g>
    
    <!-- Tile 3 - Purple -->
    <g transform="translate(615, 0)">
      <rect width="195" height="80" rx="10" fill="#161b22"/>
      <rect width="195" height="80" rx="10" fill="none" stroke="#d2a8ff" stroke-width="2"/>
      <text x="97" y="22" text-anchor="middle" font-size="13" font-weight="600" fill="#d2a8ff">SubVec 3</text>
      <text x="97" y="40" text-anchor="middle" font-size="11" fill="#8b949e">elements 24–31</text>
      
      <g transform="translate(10, 50)" font-family="'RobotoMono', monospace" font-size="10" fill="#c9d1d9">
        <rect x="0" y="0" width="20" height="22" rx="3" fill="#d2a8ff" opacity="0.3"/>
        <text x="10" y="15" text-anchor="middle">24</text>
        <rect x="22" y="0" width="20" height="22" rx="3" fill="#d2a8ff" opacity="0.3"/>
        <text x="32" y="15" text-anchor="middle">25</text>
        <rect x="44" y="0" width="20" height="22" rx="3" fill="#d2a8ff" opacity="0.3"/>
        <text x="54" y="15" text-anchor="middle">26</text>
        <rect x="66" y="0" width="20" height="22" rx="3" fill="#d2a8ff" opacity="0.3"/>
        <text x="76" y="15" text-anchor="middle">27</text>
        <rect x="88" y="0" width="20" height="22" rx="3" fill="#d2a8ff" opacity="0.3"/>
        <text x="98" y="15" text-anchor="middle">28</text>
        <rect x="110" y="0" width="20" height="22" rx="3" fill="#d2a8ff" opacity="0.3"/>
        <text x="120" y="15" text-anchor="middle">29</text>
        <rect x="132" y="0" width="20" height="22" rx="3" fill="#d2a8ff" opacity="0.3"/>
        <text x="142" y="15" text-anchor="middle">30</text>
        <rect x="154" y="0" width="20" height="22" rx="3" fill="#d2a8ff" opacity="0.3"/>
        <text x="164" y="15" text-anchor="middle">31</text>
      </g>
    </g>
  </g>

  <!-- Bottom caption -->
  <text x="450" y="415" text-anchor="middle" font-size="14" fill="#ffffff">Each tile thread loads a data tile from its sub-vector, adds tiles, and stores the result back out to the same sub-vector.</text>
  <text x="450" y="445" text-anchor="middle" font-size="14" fill="#76B900" font-weight="600">All 4 tile threads run in parallel.</text>

</svg>
